PathFileType	4	(X/Y/Z)	./resultDataOpenSim/trcMotMarkerGrf/sub09/qtm-05-03.trc
DataRate	CameraRate	NumFrames	NumMarkers	Units	OrigDataRate	OrigDataStartFrame	OrigNumFrames
250.000000	250.000000	9	24	m	250.000000	128	511
Frame#	Time	L.Toe.Tip			R.Toe.Tip			L.Ankle.Lat			R.Ankle.Lat			L.Ankle.Med			R.Ankle.Med			L.Heel			R.Heel			L.Knee.Lat			R.Knee.Lat			L.Knee.Med			R.Knee.Med			L.Thigh.Upper			R.Thigh.Upper			L.ASIS			R.ASIS			V.Sacral			L.Acromium			R.Acromium			C7			L.Elbow			R.Elbow			L.Wrist.Lat			R.Wrist.Lat
		X1	Y1	Z1	X2	Y2	Z2	X3	Y3	Z3	X4	Y4	Z4	X5	Y5	Z5	X6	Y6	Z6	X7	Y7	Z7	X8	Y8	Z8	X9	Y9	Z9	X10	Y10	Z10	X11	Y11	Z11	X12	Y12	Z12	X13	Y13	Z13	X14	Y14	Z14	X15	Y15	Z15	X16	Y16	Z16	X17	Y17	Z17	X18	Y18	Z18	X19	Y19	Z19	X20	Y20	Z20	X21	Y21	Z21	X22	Y22	Z22	X23	Y23	Z23	X24	Y24	Z24

128	0.508	-0.24875169	0.090326117	0.024317393	-0.68395999	0.040313545	0.12719299	-0.40040528	0.10806734	-0.011235476	-0.83132059	0.060611156	0.1466062	-0.37759386	0.1271136	0.083012652	-0.80951353	0.097342953	0.057403119	-0.46220719	0.060578685	0.039618709	-0.89628262	0.041226811	0.088923633	-0.41108831	0.52546214	-0.051432584	-0.66845264	0.48782269	0.2194282	-0.41152432	0.52330832	0.073125939	-0.67662691	0.47878587	0.092258738	-0.61959502	0.88894179	-0.096436361	-0.68005064	0.8983225	0.27531605	-0.55233367	0.97018377	-0.025086771	-0.57300123	0.97622719	0.21201762	-0.72519938	1.0350509	0.074521372	-0.54111723	1.4251333	-0.07138759	-0.56342378	1.4307485	0.25752171	-0.6179064	1.4812211	0.092606618	-0.71474881	1.1023726	-0.11983511	-0.68007433	1.0709994	0.33429594	-0.62476829	0.85821162	-0.161886	-0.44746063	0.91464677	0.30393454
129	0.512	-0.23171908	0.092014935	0.025956964	-0.68388303	0.040230791	0.1269462	-0.38377366	0.10614301	-0.010290029	-0.83087114	0.060773604	0.14628243	-0.36156305	0.12602915	0.084087942	-0.80935391	0.096935898	0.056728036	-0.44436986	0.057162678	0.040679034	-0.89620538	0.041062206	0.088477719	-0.40465405	0.5227724	-0.050895681	-0.6655608	0.48668665	0.21898786	-0.40588501	0.52100909	0.07336976	-0.67408189	0.47798134	0.09185102	-0.61291628	0.88725309	-0.09605397	-0.67472474	0.8973196	0.27560457	-0.54555231	0.96863141	-0.024482605	-0.56726337	0.97520399	0.21257901	-0.71888531	1.0333584	0.074258643	-0.53482443	1.4237253	-0.071249131	-0.55785618	1.4296513	0.25756028	-0.61211685	1.4798765	0.092526236	-0.70917368	1.1016526	-0.11999178	-0.67441524	1.0697572	0.33437427	-0.62112342	0.8569776	-0.16239286	-0.44105669	0.91452941	0.30363808
130	0.516	-0.21503203	0.09376548	0.027600366	-0.68385103	0.040135246	0.12663417	-0.36742448	0.10431827	-0.0093477602	-0.83057806	0.060796382	0.14590897	-0.34576256	0.12501521	0.085048926	-0.80926117	0.096467311	0.056019418	-0.42678241	0.053902468	0.041692919	-0.89615118	0.040873507	0.088046659	-0.39849534	0.5200681	-0.05044778	-0.66275766	0.48541809	0.21847687	-0.40022228	0.51850558	0.073709197	-0.67163214	0.47716557	0.09133147	-0.6060941	0.88546482	-0.095628435	-0.66935597	0.89618513	0.27588029	-0.53873706	0.96700488	-0.023846848	-0.56150539	0.97408309	0.21315672	-0.71270323	1.0315138	0.073714284	-0.52854541	1.4222376	-0.071105183	-0.55231838	1.4284794	0.25759713	-0.60634709	1.478439	0.092436403	-0.70360987	1.1008339	-0.12016804	-0.66876935	1.0684363	0.3344496	-0.61745403	0.85565878	-0.16292044	-0.4346915	0.9143088	0.30334927
131	0.52	-0.19871767	0.095557636	0.029188069	-0.68385267	0.040026047	0.12630694	-0.3513639	0.10256281	-0.0084172933	-0.83042852	0.06070583	0.14546537	-0.33023244	0.12407312	0.085934423	-0.8092217	0.095950019	0.055317577	-0.40949334	0.050827304	0.042643429	-0.89613254	0.04065794	0.08763717	-0.39248999	0.51734555	-0.050062815	-0.66000423	0.48403289	0.21791829	-0.39443262	0.51581331	0.074184394	-0.66924278	0.47632375	0.090748064	-0.59919441	0.88357856	-0.095147265	-0.66395279	0.8949267	0.27615239	-0.53190206	0.96530799	-0.023185673	-0.55573508	0.9728626	0.2137492	-0.70673254	1.0295571	0.072917836	-0.5222954	1.4206663	-0.070956282	-0.54682779	1.4272399	0.25763732	-0.60060222	1.4769162	0.092345418	-0.69808671	1.0999195	-0.12035704	-0.66312997	1.0670358	0.33452639	-0.61375253	0.85425561	-0.16346067	-0.42836911	0.91398342	0.30306751
132	0.524	-0.18279341	0.09736994	0.030696416	-0.68387288	0.039908941	0.12599835	-0.33560105	0.10087012	-0.0075219538	-0.83038474	0.060555536	0.14499484	-0.31500598	0.1231982	0.086790377	-0.80920355	0.095416262	0.054679572	-0.39251551	0.0479318	0.043550909	-0.89615541	0.040416967	0.087253011	-0.38655528	0.5145846	-0.049698428	-0.65720103	0.48257393	0.21735207	-0.38849749	0.51294573	0.074789839	-0.66671302	0.47545507	0.090230845	-0.59225846	0.88160451	-0.094605515	-0.65852918	0.89355716	0.27643372	-0.52506466	0.96353787	-0.02251004	-0.54994914	0.97154243	0.21435183	-0.70093187	1.0275149	0.072104062	-0.51608178	1.4190056	-0.070806264	-0.54135876	1.4259259	0.257677	-0.59489197	1.4753239	0.092266581	-0.69259178	1.0989118	-0.12055891	-0.6575004	1.0655581	0.33461565	-0.61000586	0.85276983	-0.16400537	-0.42209935	0.91354967	0.30279525
133	0.528	-0.16725897	0.099181325	0.032122496	-0.68390299	0.039789841	0.12570474	-0.32015324	0.099248268	-0.0066706045	-0.83040748	0.060375111	0.14456437	-0.30010868	0.12237325	0.087626359	-0.80918283	0.09489795	0.05411885	-0.3758554	0.04518883	0.044438002	-0.89621623	0.04015876	0.086892542	-0.38067047	0.51177033	-0.049327391	-0.65426527	0.48107638	0.2167887	-0.38248659	0.5099221	0.075465617	-0.66389511	0.47456102	0.089851694	-0.58528791	0.87954923	-0.094028522	-0.65308415	0.8920744	0.27672579	-0.51821775	0.96169451	-0.021832235	-0.54412824	0.97012411	0.21496047	-0.69513773	1.0253781	0.071501617	-0.50987336	1.4172503	-0.070659868	-0.53589075	1.4245266	0.2577098	-0.58921227	1.4736674	0.092193591	-0.68703629	1.0978071	-0.12079825	-0.65190674	1.0640127	0.33473767	-0.60621395	0.85119925	-0.16455869	-0.41588518	0.91300538	0.30253656
134	0.532	-0.15209925	0.10097302	0.033465246	-0.68393936	0.039671577	0.12541205	-0.30503171	0.09771276	-0.0058492732	-0.83045097	0.060178654	0.14420563	-0.28555196	0.12157953	0.088431203	-0.80916049	0.094409353	0.053597614	-0.35953334	0.042573959	0.045304757	-0.89630937	0.039892492	0.086553398	-0.37482607	0.50888661	-0.04893169	-0.65117396	0.47955219	0.21620814	-0.37644798	0.50676908	0.076162105	-0.66089206	0.47359684	0.089526229	-0.57828006	0.87740844	-0.093450353	-0.64761069	0.89047065	0.27702268	-0.51131831	0.95978432	-0.021161217	-0.53826245	0.96860539	0.21557509	-0.68922793	1.0231255	0.071126818	-0.50361152	1.4153965	-0.070521539	-0.53043001	1.42304	0.25773377	-0.58354029	1.4719294	0.092098895	-0.68131583	1.0965933	-0.12111041	-0.6463928	1.062415	0.33491982	-0.60240126	0.84953734	-0.16513851	-0.40972041	0.91235255	0.30229309
135	0.536	-0.13731493	0.10272317	0.034719617	-0.68398269	0.039554201	0.12512032	-0.29023047	0.096275935	-0.0050503864	-0.83047572	0.059984746	0.14389256	-0.27133149	0.12079528	0.089197985	-0.8091593	0.093949947	0.053085534	-0.34357719	0.040072651	0.046121437	-0.8964289	0.039627982	0.08623726	-0.36898142	0.50592033	-0.048501524	-0.64796134	0.47799384	0.21559673	-0.37036796	0.50350423	0.076872554	-0.65796428	0.47248287	0.089090192	-0.57124911	0.87517098	-0.09287917	-0.64210221	0.88874169	0.27731491	-0.50433206	0.95781502	-0.020501059	-0.53236019	0.9669802	0.21619626	-0.68323094	1.0207506	0.070838269	-0.49727917	1.413441	-0.070389252	-0.52498179	1.4214691	0.25775081	-0.57785932	1.4700869	0.091964971	-0.67544723	1.0952595	-0.121496	-0.64096028	1.060766	0.33516161	-0.5985902	0.84777729	-0.1657599	-0.40359567	0.91159255	0.30206328
136	0.54	-0.1229443	0.10440312	0.035874727	-0.68403643	0.039436882	0.1248438	-0.2757472	0.094932812	-0.0042955296	-0.83047416	0.059810148	0.14357464	-0.25745204	0.11998301	0.08991402	-0.80920045	0.093517128	0.052587294	-0.32800457	0.037673301	0.046826755	-0.89656433	0.039380773	0.085948571	-0.36307795	0.50286561	-0.048043753	-0.6446921	0.47638261	0.21496757	-0.36426157	0.50013124	0.077590022	-0.6552481	0.47119705	0.088466906	-0.5642115	0.87283128	-0.092293911	-0.63656281	0.88690048	0.27759596	-0.49728683	0.95578678	-0.019848807	-0.52642484	0.9652473	0.21681588	-0.67719986	1.0182697	0.070529624	-0.49093352	1.4113829	-0.070258847	-0.51953957	1.4198159	0.25776305	-0.57217351	1.4681322	0.091801649	-0.66957504	1.0938042	-0.12191337	-0.6355036	1.0590294	0.33539291	-0.59474551	0.84591975	-0.16641225	-0.39750679	0.91072418	0.30184388
